<?xml version="1.0" encoding="UTF-8"?> <svg xmlns="http://www.w3.org/2000/svg" width="12" height="12" viewBox="0 0 12 12" fill="none"> <path d="M11.7111 3.43314L9.36642 1.08845C9.31177 1.03381 9.24214 0.996605 9.16635 0.981534C9.09056 0.966462 9.012 0.974201 8.9406 1.00377C8.8692 1.03334 8.80818 1.08342 8.76524 1.14767C8.7223 1.21191 8.69937 1.28745 8.69935 1.36473V2.53708H2.83762C2.52669 2.53708 2.2285 2.66059 2.00864 2.88045C1.78878 3.10031 1.66527 3.3985 1.66527 3.70942C1.66527 4.02035 1.78878 4.31854 2.00864 4.5384C2.2285 4.75825 2.52669 4.88177 2.83762 4.88177H8.69935V6.05412C8.69937 6.13139 8.7223 6.20693 8.76524 6.27118C8.80818 6.33543 8.8692 6.3855 8.9406 6.41507C9.012 6.44464 9.09056 6.45238 9.16635 6.43731C9.24214 6.42224 9.31177 6.38503 9.36642 6.3304L11.7111 3.98571C11.7474 3.94945 11.7762 3.90638 11.7959 3.85897C11.8156 3.81156 11.8257 3.76075 11.8257 3.70942C11.8257 3.6581 11.8156 3.60728 11.7959 3.55987C11.7762 3.51246 11.7474 3.4694 11.7111 3.43314ZM9.8717 7.22646H4.00996V6.05412C4.00995 5.97684 3.98702 5.9013 3.94408 5.83705C3.90114 5.7728 3.84011 5.72273 3.76872 5.69316C3.69732 5.66359 3.61876 5.65585 3.54297 5.67092C3.46717 5.68599 3.39755 5.7232 3.3429 5.77783L0.998205 8.12253C0.924944 8.19581 0.883789 8.29519 0.883789 8.39881C0.883789 8.50243 0.924944 8.60181 0.998205 8.67509L3.3429 11.0198C3.39755 11.0744 3.46717 11.1116 3.54297 11.1267C3.61876 11.1418 3.69732 11.134 3.76872 11.1045C3.84011 11.0749 3.90114 11.0248 3.94408 10.9606C3.98702 10.8963 4.00995 10.8208 4.00996 10.7435V9.57116H9.8717C10.0257 9.57116 10.1781 9.54083 10.3203 9.48192C10.4626 9.423 10.5918 9.33665 10.7007 9.22778C10.8095 9.11892 10.8959 8.98968 10.9548 8.84745C11.0137 8.70521 11.044 8.55276 11.044 8.39881C11.044 8.24485 11.0137 8.09241 10.9548 7.95017C10.8959 7.80794 10.8095 7.6787 10.7007 7.56984C10.5918 7.46097 10.4626 7.37462 10.3203 7.3157C10.1781 7.25679 10.0257 7.22646 9.8717 7.22646Z" fill="#DFE5EA"></path> </svg> 