<?xml version="1.0" encoding="UTF-8"?> <svg xmlns="http://www.w3.org/2000/svg" width="54" height="38" viewBox="0 0 54 38" fill="none"> <path fill-rule="evenodd" clip-rule="evenodd" d="M15.1776 12.4618L19.5123 12.4706L19.5477 15.8234L15.1776 12.4618ZM39.1337 12.4618L34.7989 12.4706L34.7724 15.8234L39.1337 12.4618ZM33.7993 34.1709L37.0902 25.7845L33.2508 18.9108V11.639H40.0183L45.5473 17.69L44.0788 26.0322L43.433 25.0679L44.6715 17.9289L40.0537 13.1518L34.7547 17.1238L34.7282 18.4419L38.771 25.7049L35.887 33.0297L45.4589 27.4918L47.2547 17.7342L46.7593 13.3464L48.0597 17.23L53.9868 4.20805L51.2798 3.11109L45.2289 6.51696L46.1931 11.5417L35.8251 2.27953L27.1556 0.333313L18.4861 2.27953L8.11811 11.5417L9.08237 6.51696L3.03141 3.11109L0.333252 4.20805L6.25151 17.23L7.55194 13.3464L7.05654 17.7342L8.85236 27.4918L18.4242 33.0297L15.5403 25.7049L19.5831 18.4419L19.5565 17.1238L14.2575 13.1518L9.63969 17.9289L10.8782 25.0679L10.2324 26.0322L8.7639 17.69L14.2929 11.639H21.0693V18.9108L17.2211 25.7845L20.5208 34.1709L27.1556 31.0393L33.7993 34.1709ZM27.1645 3.11994L27.1556 3.15532L27.9253 8.78165L31.8088 9.90515L27.9253 11.0286L27.1556 16.655L27.1645 23.9798H27.1468L22.8651 22.4228L21.5204 24.7406L24.1655 26.9876L24.1301 26.0941L22.7678 24.9883L23.1747 24.2452L25.1121 25.7137V27.6953L27.1556 29.2169L29.1991 27.6953V25.7137L31.1365 24.2452L31.5523 24.9883L30.1811 26.0941L30.1457 26.9876L32.7908 24.7406L31.4461 22.4228L27.1645 23.9798L27.1556 16.655L26.386 11.0286L22.5024 9.90515L26.386 8.78165L27.1645 3.11994ZM33.242 9.90515V5.54386L34.9582 9.90515H33.242ZM43.8223 8.40125L43.4154 6.03926L38.1075 3.40302L43.8223 8.40125ZM10.489 8.40125L10.8959 6.03926L16.2037 3.40302L10.489 8.40125ZM27.1556 32.8616H24.7405L20.7243 34.7724L22.9713 37.8333H27.1556H31.34L33.587 34.7724L29.5707 32.8616H27.1556ZM21.0693 9.90515V5.54386L19.3531 9.90515H21.0693Z" fill="#66501B"></path> </svg> 