<?xml version="1.0" encoding="UTF-8"?> <svg xmlns="http://www.w3.org/2000/svg" width="75" height="24" viewBox="0 0 75 24" fill="none"> <path d="M0.604966 13.2466L0.56958 9.37191H0.808434C1.38345 10.7962 2.05578 11.7693 2.84311 12.2912C3.63044 12.8132 4.42662 13.0786 5.21395 13.0786C5.93051 13.0786 6.54092 12.8751 7.05401 12.4593C7.57595 12.0524 7.8325 11.5127 7.8325 10.8581C7.8325 9.56653 7.16901 8.73497 5.84205 8.37226L3.65698 7.77955C1.90539 7.293 1.02959 6.0545 1.02959 4.04636C1.02959 3.48019 1.16229 2.9494 1.43653 2.4717C1.71077 1.98514 2.08232 1.60475 2.56887 1.32166C3.05543 1.03858 3.6039 0.897034 4.19661 0.897034C4.68317 0.897034 5.05472 0.923573 5.31126 0.985498C5.55896 1.04742 5.79782 1.13589 6.01013 1.25089C6.23129 1.36589 6.40822 1.45436 6.54976 1.49859C6.68246 1.54282 6.92131 1.56936 7.25748 1.56936C7.39017 1.56936 7.53172 1.41013 7.68211 1.1005H7.97404L8.05366 4.02867H7.78826C6.97439 2.16207 5.78897 1.2332 4.24969 1.2332C3.52429 1.2332 2.94927 1.44551 2.52464 1.87899C2.10886 2.30362 1.89654 2.81671 1.89654 3.41826C1.89654 3.94905 2.02924 4.36483 2.27694 4.6833C2.53349 4.99293 2.80773 5.21409 3.1085 5.34679C3.40928 5.47948 3.76314 5.60333 4.17892 5.71834L6.07206 6.22258C6.8417 6.42605 7.43441 6.74452 7.85019 7.16915C8.25712 7.60262 8.52252 8.0361 8.64637 8.47842C8.77022 8.92959 8.83214 9.36306 8.83214 9.79654C8.83214 10.3981 8.69945 10.982 8.4429 11.5481C8.1952 12.1055 7.80596 12.5655 7.29286 12.9193C6.77093 13.2732 6.14283 13.4501 5.41742 13.4501C4.42662 13.4501 3.50659 13.2466 2.65734 12.8309C2.22386 12.6362 1.94078 12.5389 1.82577 12.5389C1.61346 12.5389 1.43653 12.6009 1.29499 12.7247C1.16229 12.8574 1.07383 13.0255 1.04729 13.2466H0.604966ZM15.0689 12.8751V1.45436H13.6446V1.1005H18.5721V1.45436H17.1389V12.8751H18.5721V13.2466H13.6446V12.8751H15.0689ZM26.8877 12.8751H28.312V13.2466H23.3845V12.8751H24.8088V1.45436H23.3845V1.1005H28.4004C29.3647 1.1005 30.214 1.16243 30.9305 1.27743C31.6648 1.39243 32.2663 1.64898 32.7529 2.04707C33.2394 2.43631 33.4871 3.02902 33.4871 3.80751C33.4871 4.5683 33.1864 5.22294 32.6025 5.77141C32.0186 6.32874 31.0455 6.65606 29.6832 6.77106V6.85068C30.4705 6.96568 31.0898 7.13376 31.5232 7.35492C31.9655 7.56724 32.2929 7.84148 32.4963 8.17764C32.7086 8.51381 32.8502 8.90305 32.9298 9.34537C33.0094 9.77884 33.0979 10.4866 33.204 11.442C33.2483 11.8489 33.3102 12.1762 33.381 12.4151C33.4606 12.6628 33.6021 12.7866 33.8144 12.7866C33.956 12.7866 34.1329 12.707 34.3364 12.5743C34.5399 12.4328 34.6991 12.2912 34.8141 12.1497L35.0972 12.4416C34.7964 12.8574 34.4868 13.1316 34.186 13.2555C33.8764 13.3793 33.5314 13.4501 33.1333 13.4501C32.629 13.4501 32.2309 13.3705 31.939 13.2201C31.6559 13.0697 31.4348 12.7955 31.2844 12.3974C31.1251 12.0081 31.0101 11.4243 30.9217 10.6458C30.8332 9.76115 30.727 9.07998 30.6032 8.57573C30.4793 8.08033 30.329 7.72647 30.1432 7.50531C29.9574 7.28415 29.7451 7.15146 29.4974 7.09838C29.2497 7.0453 28.8781 7.01876 28.3827 7.01876H26.8877V12.8751ZM26.8877 6.64721H28.1793C28.7454 6.64721 29.232 6.57644 29.6566 6.44374C30.0813 6.31989 30.4351 6.03681 30.7182 5.62103C31.0013 5.1964 31.1517 4.58599 31.1517 3.78981C31.1517 3.17941 31.0367 2.7017 30.8067 2.35669C30.5855 2.02053 30.267 1.78168 29.8513 1.64898C29.4443 1.51628 28.9224 1.45436 28.2943 1.45436H26.8877V6.64721ZM40.697 12.8751V1.45436H39.2727V1.1005H44.209V1.45436H42.7759V12.8751H44.209V13.2466H39.2727V12.8751H40.697ZM59.3895 3.14403V9.84962C59.3895 10.5573 59.2214 11.1854 58.8587 11.7339C58.5048 12.2824 58.0183 12.707 57.3902 12.9989C56.7621 13.2997 56.0455 13.4501 55.2582 13.4501C54.577 13.4501 53.8693 13.344 53.135 13.1405C52.4008 12.937 51.7727 12.5655 51.2419 12.0258C50.7111 11.4862 50.4457 10.7608 50.4457 9.84962V1.45436H49.0215V1.1005H53.9489V1.45436H52.5158V10.1504C52.5158 11.035 52.8166 11.7162 53.427 12.1939C54.0374 12.6716 54.8159 12.9105 55.7801 12.9105C57.9387 12.9105 59.0268 11.7604 59.0268 9.46037V2.77248C59.0268 2.28592 58.8941 1.9586 58.6375 1.79052C58.381 1.62244 57.974 1.50744 57.4167 1.45436V1.1005H61.0084V1.45436C60.5572 1.4809 60.221 1.53398 59.991 1.63129C59.7699 1.71975 59.6106 1.87899 59.5222 2.10899C59.4337 2.339 59.3895 2.68401 59.3895 3.14403ZM65.8562 13.2466L65.8208 9.37191H66.0597C66.6347 10.7962 67.307 11.7693 68.0944 12.2912C68.8817 12.8132 69.6779 13.0786 70.4652 13.0786C71.1818 13.0786 71.7922 12.8751 72.3053 12.4593C72.8272 12.0524 73.0837 11.5127 73.0837 10.8581C73.0837 9.56653 72.4203 8.73497 71.0933 8.37226L68.9082 7.77955C67.1566 7.293 66.2808 6.0545 66.2808 4.04636C66.2808 3.48019 66.4135 2.9494 66.6878 2.4717C66.962 1.98514 67.3336 1.60475 67.8201 1.32166C68.3067 1.03858 68.8551 0.897034 69.4479 0.897034C69.9344 0.897034 70.306 0.923573 70.5625 0.985498C70.8102 1.04742 71.0491 1.13589 71.2614 1.25089C71.4825 1.36589 71.6595 1.45436 71.801 1.49859C71.9337 1.54282 72.1726 1.56936 72.5087 1.56936C72.6414 1.56936 72.783 1.41013 72.9333 1.1005H73.2253L73.3049 4.02867H73.0395C72.2256 2.16207 71.0402 1.2332 69.5009 1.2332C68.7755 1.2332 68.2005 1.44551 67.7759 1.87899C67.3601 2.30362 67.1478 2.81671 67.1478 3.41826C67.1478 3.94905 67.2805 4.36483 67.5282 4.6833C67.7847 4.99293 68.059 5.21409 68.3597 5.34679C68.6605 5.47948 69.0144 5.60333 69.4302 5.71834L71.3233 6.22258C72.0929 6.42605 72.6856 6.74452 73.1014 7.16915C73.5084 7.60262 73.7738 8.0361 73.8976 8.47842C74.0215 8.92959 74.0834 9.36306 74.0834 9.79654C74.0834 10.3981 73.9507 10.982 73.6941 11.5481C73.4464 12.1055 73.0572 12.5655 72.5441 12.9193C72.0222 13.2732 71.3941 13.4501 70.6687 13.4501C69.6779 13.4501 68.7578 13.2466 67.9086 12.8309C67.4751 12.6362 67.192 12.5389 67.077 12.5389C66.8647 12.5389 66.6878 12.6009 66.5462 12.7247C66.4135 12.8574 66.3251 13.0255 66.2985 13.2466H65.8562Z" fill="#66501B"></path> <path d="M0.728921 17.5195C0.941235 17.4664 1.1624 17.4399 1.3924 17.4222C1.63126 17.4045 1.87011 17.3956 2.10012 17.3956C2.34782 17.3956 2.60436 17.4222 2.86091 17.4664C3.11746 17.5195 3.34746 17.608 3.55978 17.7407C3.77209 17.8645 3.94017 18.0414 4.07287 18.2714C4.20557 18.5014 4.26749 18.7845 4.26749 19.1384C4.26749 19.4834 4.20557 19.7753 4.08172 20.0142C3.95787 20.253 3.79863 20.4388 3.59516 20.5892C3.38285 20.7396 3.15284 20.8457 2.88745 20.9077C2.62206 20.9784 2.34782 21.005 2.06473 21.005C2.03819 21.005 1.99396 21.005 1.93203 21.005C1.87011 21.005 1.80818 21.005 1.73741 21.005C1.67549 21.005 1.60472 20.9961 1.54279 20.9961C1.48087 20.9873 1.42779 20.9784 1.40125 20.9784V23.1281H0.728921V17.5195ZM2.11781 17.9795C1.97627 17.9795 1.84357 17.9795 1.71087 17.9884C1.58702 17.9972 1.48087 18.006 1.40125 18.0237V20.3769C1.42779 20.3857 1.47202 20.3946 1.53395 20.3946C1.59587 20.4034 1.6578 20.4034 1.71972 20.4034C1.78165 20.4034 1.84357 20.4123 1.9055 20.4123C1.96742 20.4123 2.01165 20.4123 2.03819 20.4123C2.22397 20.4123 2.4009 20.3946 2.58667 20.3592C2.7636 20.3238 2.92283 20.2619 3.07322 20.1646C3.21477 20.0761 3.33862 19.9434 3.42708 19.7753C3.51554 19.6072 3.55978 19.3949 3.55978 19.1384C3.55978 18.9172 3.51554 18.7315 3.43593 18.5811C3.34746 18.4307 3.24131 18.3157 3.09976 18.2272C2.96707 18.1387 2.80783 18.0768 2.63975 18.0326C2.46282 17.9972 2.28589 17.9795 2.11781 17.9795ZM12.8485 21.5623H10.7696L10.2034 23.1281H9.53112L11.6808 17.3691H11.9816L14.1401 23.1281H13.4235L12.8485 21.5623ZM10.9819 20.9784H12.6451L12.017 19.2534L11.8135 18.3953H11.8046L11.61 19.2711L10.9819 20.9784ZM20.2972 17.5195C20.5007 17.4841 20.7395 17.4487 21.0049 17.431C21.2703 17.4045 21.518 17.3956 21.7392 17.3956C21.9869 17.3956 22.2257 17.4222 22.4469 17.4753C22.6769 17.5283 22.8715 17.6168 23.0396 17.7407C23.2077 17.8645 23.3492 18.0326 23.4465 18.2272C23.5527 18.4307 23.6058 18.6695 23.6058 18.9615C23.6058 19.4038 23.4819 19.7576 23.2342 20.0407C22.9954 20.315 22.6858 20.4919 22.3142 20.5892L22.7034 20.89L24.11 23.1281H23.3315L21.7657 20.6865L20.9695 20.5627V23.1281H20.2972V17.5195ZM21.7569 17.9795C21.6861 17.9795 21.6153 17.9795 21.5357 17.9795C21.4649 17.9795 21.3853 17.9795 21.3146 17.9884C21.2526 17.9972 21.1819 17.9972 21.1199 18.006C21.058 18.006 21.0049 18.0149 20.9695 18.0237V20.1203H21.6065C21.978 20.1203 22.2788 20.023 22.5265 19.8461C22.7654 19.6603 22.8892 19.3684 22.8892 18.988C22.8892 18.6961 22.7919 18.4484 22.5884 18.2626C22.3938 18.0768 22.1107 17.9795 21.7569 17.9795ZM33.6907 18.0591H31.9214V23.1281H31.2491V18.0591H29.4887V17.4576H33.6907V18.0591ZM40.9536 19.4215L40.5113 18.5988H40.4759L40.5644 19.4215V23.1281H39.9274V17.3691H40.2813L42.9971 21.1554L43.4218 21.9339H43.4572L43.3687 21.1554V17.4576H44.0056V23.2166H43.6429L40.9536 19.4215ZM50.782 17.4576H53.8694V18.0591H51.4543V19.9169H53.6659V20.5184H51.4543V22.5266H53.9136V23.1281H50.782V17.4576ZM60.5308 17.5195C60.7342 17.4841 60.9731 17.4487 61.2385 17.431C61.5039 17.4045 61.7516 17.3956 61.9727 17.3956C62.2204 17.3956 62.4593 17.4222 62.6804 17.4753C62.9016 17.5283 63.1051 17.6168 63.2732 17.7407C63.4412 17.8645 63.5828 18.0326 63.6801 18.2272C63.7862 18.4307 63.8393 18.6695 63.8393 18.9615C63.8393 19.4038 63.7155 19.7576 63.4678 20.0407C63.2289 20.315 62.9193 20.4919 62.5477 20.5892L62.937 20.89L64.3436 23.1281H63.5562L61.9993 20.6865L61.2031 20.5627V23.1281H60.5308V17.5195ZM61.9904 17.9795C61.9197 17.9795 61.8489 17.9795 61.7693 17.9795C61.6985 17.9795 61.6189 17.9795 61.5481 17.9884C61.4773 17.9972 61.4154 17.9972 61.3535 18.006C61.2916 18.006 61.2385 18.0149 61.2031 18.0237V20.1203H61.8312C62.2116 20.1203 62.5124 20.023 62.7601 19.8461C62.9989 19.6603 63.1228 19.3684 63.1228 18.988C63.1228 18.6961 63.0255 18.4484 62.822 18.2626C62.6274 18.0768 62.3443 17.9795 61.9904 17.9795ZM73.3139 21.6862C73.3139 21.465 73.2431 21.2792 73.1104 21.1377C72.9777 20.9873 72.8096 20.8634 72.6061 20.7573C72.4027 20.6423 72.1815 20.5361 71.9426 20.4388C71.7126 20.3415 71.4915 20.2265 71.288 20.085C71.0845 19.9523 70.9165 19.7842 70.7838 19.5807C70.6422 19.3772 70.5803 19.1207 70.5803 18.8022C70.5803 18.3599 70.7307 18.0149 71.0403 17.7495C71.3499 17.493 71.7834 17.3603 72.3496 17.3603C72.6769 17.3603 72.9777 17.3868 73.2519 17.4399C73.5173 17.4841 73.7296 17.546 73.88 17.6256L73.6766 18.2184C73.5527 18.1653 73.3758 18.1034 73.1369 18.0503C72.8892 17.9884 72.6238 17.9618 72.3231 17.9618C71.9603 17.9618 71.695 18.0414 71.518 18.2007C71.3411 18.3599 71.2526 18.5457 71.2526 18.7668C71.2526 18.9792 71.3146 19.1472 71.4561 19.2888C71.5888 19.4303 71.7569 19.5542 71.9603 19.6692C72.1638 19.7753 72.385 19.8903 72.615 19.9965C72.8538 20.1026 73.075 20.2265 73.2785 20.3769C73.4819 20.5184 73.65 20.6865 73.7827 20.89C73.9154 21.0846 73.9862 21.3323 73.9862 21.6331C73.9862 21.8719 73.9419 22.0931 73.8535 22.2877C73.7739 22.4823 73.6412 22.6504 73.4731 22.792C73.3139 22.9335 73.1104 23.0397 72.8715 23.1104C72.6327 23.1901 72.3584 23.2254 72.0577 23.2254C71.6507 23.2254 71.3234 23.1989 71.058 23.137C70.7926 23.075 70.5891 23.0043 70.4388 22.9247L70.6688 22.3319C70.7926 22.3939 70.9784 22.4646 71.2172 22.5266C71.4561 22.5973 71.7303 22.6239 72.0311 22.6239C72.2169 22.6239 72.385 22.6062 72.5354 22.5796C72.6946 22.5443 72.8273 22.4823 72.9423 22.4027C73.0573 22.3231 73.1458 22.2258 73.2165 22.1108C73.2785 21.9869 73.3139 21.8542 73.3139 21.6862Z" fill="#66501B"></path> </svg> 