<svg xmlns="http://www.w3.org/2000/svg" width="13" height="13" viewBox="0 0 13 13" fill="none">
  <path fill-rule="evenodd" clip-rule="evenodd" d="M8.93694 12.0646C8.08694 12.0333 5.67801 11.7004 3.15517 9.17814C0.63291 6.65529 0.300583 4.24696 0.268708 3.39637C0.221486 2.10012 1.21433 0.841056 2.36124 0.349355C2.49935 0.289717 2.6506 0.267011 2.80013 0.283465C2.94967 0.299919 3.09235 0.354968 3.21419 0.443209C4.15864 1.13147 4.81031 2.17272 5.36989 2.99144C5.49301 3.17131 5.54565 3.3902 5.51779 3.60639C5.48992 3.82258 5.38349 4.02096 5.21878 4.16373L4.06715 5.01904C4.01151 5.05922 3.97234 5.11823 3.95693 5.1851C3.94151 5.25198 3.95089 5.32217 3.98333 5.38265C4.24423 5.85665 4.70819 6.56262 5.23944 7.09387C5.77128 7.62512 6.51031 8.11977 7.01735 8.41019C7.08093 8.44588 7.15576 8.45585 7.22646 8.43807C7.29717 8.42028 7.35837 8.37608 7.39749 8.31456L8.14715 7.17356C8.28497 6.99048 8.48828 6.86783 8.71451 6.8313C8.94073 6.79477 9.17232 6.84719 9.36076 6.97758C10.1913 7.55252 11.1605 8.19297 11.87 9.1014C11.9654 9.22412 12.0261 9.37022 12.0457 9.52442C12.0654 9.67862 12.0432 9.83526 11.9816 9.97797C11.4875 11.1308 10.2373 12.1124 8.93694 12.0646Z" fill="#F4F4FC" fill-opacity="0.15"></path>
</svg>