<?xml version="1.0" encoding="UTF-8"?> <svg xmlns="http://www.w3.org/2000/svg" width="15" height="15" viewBox="0 0 15 15" fill="none"><path fill-rule="evenodd" clip-rule="evenodd" d="M10.7241 14.1775C9.70413 14.14 6.81342 13.7405 3.786 10.7138C0.759297 7.68637 0.360505 4.79637 0.322255 3.77567C0.265588 2.22017 1.457 0.709292 2.8333 0.11925C2.99903 0.047685 3.18052 0.020438 3.35996 0.0401828C3.53941 0.0599275 3.71063 0.125986 3.85684 0.231875C4.99017 1.05779 5.77217 2.30729 6.44367 3.28975C6.59142 3.5056 6.65459 3.76826 6.62115 4.02769C6.58771 4.28712 6.45999 4.52517 6.26234 4.6965L4.88038 5.72287C4.81361 5.77109 4.76662 5.8419 4.74812 5.92215C4.72962 6.0024 4.74087 6.08663 4.7798 6.15921C5.09288 6.728 5.64963 7.57517 6.28713 8.21267C6.92534 8.85017 7.81217 9.44375 8.42063 9.79225C8.49692 9.83508 8.58672 9.84705 8.67156 9.8257C8.75641 9.80436 8.82985 9.75132 8.8768 9.6775L9.77638 8.30829C9.94177 8.0886 10.1857 7.94142 10.4572 7.89759C10.7287 7.85375 11.0066 7.91666 11.2327 8.07312C12.2293 8.76304 13.3924 9.53158 14.2438 10.6217C14.3583 10.769 14.4311 10.9443 14.4547 11.1293C14.4783 11.3144 14.4517 11.5023 14.3777 11.6736C13.7848 13.057 12.2846 14.2349 10.7241 14.1775Z" fill="#DFE5EA"></path></svg> 