<?xml version="1.0" encoding="UTF-8"?> <svg xmlns="http://www.w3.org/2000/svg" width="13" height="14" viewBox="0 0 13 14" fill="none"> <path d="M12.0777 11.8391L10.986 5.31755C10.9362 5.01991 10.7823 4.7496 10.5519 4.55472C10.3214 4.35984 10.0293 4.25302 9.72751 4.25326H8.08732C8.28591 3.9074 8.39015 3.51545 8.38962 3.11663C8.38962 1.8535 7.36216 0.825775 6.09877 0.825775C4.83564 0.825775 3.80791 1.8535 3.80791 3.11663C3.80791 3.53 3.91789 3.91817 4.11021 4.25326H2.47002C2.16816 4.25309 1.87602 4.36001 1.64557 4.55499C1.41513 4.74997 1.26132 5.02037 1.2115 5.3181L0.120111 11.8404C0.0894487 12.0235 0.0989992 12.211 0.148099 12.39C0.1972 12.5691 0.284673 12.7352 0.404446 12.8771C0.52422 13.0189 0.673423 13.1329 0.841696 13.2113C1.00997 13.2896 1.19328 13.3304 1.3789 13.3308H10.8197C11.0054 13.3303 11.1888 13.2894 11.357 13.2109C11.5253 13.1324 11.6745 13.0183 11.7942 12.8763C11.9139 12.7344 12.0013 12.568 12.0502 12.3889C12.0992 12.2098 12.1086 12.0222 12.0777 11.8391ZM6.09904 2.16041C6.35258 2.16077 6.59563 2.26167 6.77488 2.44098C6.95414 2.62028 7.05497 2.86336 7.05525 3.1169C7.05497 3.37042 6.95413 3.61347 6.77487 3.79273C6.5956 3.972 6.35255 4.07283 6.09904 4.07312C5.57163 4.07312 5.14255 3.64404 5.14255 3.11663C5.14255 2.58922 5.57163 2.16041 6.09904 2.16041Z" fill="#DFE5EA"></path> </svg> 